<svg xmlns="http://www.w3.org/2000/svg" width="22" height="33" viewBox="0 0 22 33">
  <g id="Group_1" data-name="Group 1" transform="translate(-12 -5)">
    <g id="Polygon_5" data-name="Polygon 5" transform="translate(12 19)" fill="#fff">
      <path d="M 21.13277816772461 18.5 L 0.8672215938568115 18.5 L 11 0.9979282021522522 L 21.13277816772461 18.5 Z" stroke="none"/>
      <path d="M 11 1.995874404907227 L 1.734453201293945 18 L 20.26554679870605 18 L 11 1.995874404907227 M 11 0 L 22 19 L 0 19 L 11 0 Z" stroke="none"/>
    </g>
    <g id="Polygon_1" data-name="Polygon 1" transform="translate(34 32) rotate(180)" fill="#fff">
      <path d="M 21.13277816772461 18.5 L 0.8672215938568115 18.5 L 11 0.9979282021522522 L 21.13277816772461 18.5 Z" stroke="none"/>
      <path d="M 11 1.995874404907227 L 1.734453201293945 18 L 20.26554679870605 18 L 11 1.995874404907227 M 11 0 L 22 19 L 0 19 L 11 0 Z" stroke="none"/>
    </g>
    <g id="Polygon_2" data-name="Polygon 2" transform="translate(13 5)" fill="#fff">
      <path d="M 9.150241851806641 8.5 L 0.8497577905654907 8.5 L 5 1.029564023017883 L 9.150241851806641 8.5 Z" stroke="none"/>
      <path d="M 5 2.059127807617188 L 1.699515342712402 8 L 8.300484657287598 8 L 5 2.059127807617188 M 5 0 L 10 9 L 0 9 L 5 0 Z" stroke="none"/>
    </g>
    <g id="Polygon_3" data-name="Polygon 3" transform="translate(23 5)" fill="#fff">
      <path d="M 9.150241851806641 8.5 L 0.8497577905654907 8.5 L 5 1.029564023017883 L 9.150241851806641 8.5 Z" stroke="none"/>
      <path d="M 5 2.059127807617188 L 1.699515342712402 8 L 8.300484657287598 8 L 5 2.059127807617188 M 5 0 L 10 9 L 0 9 L 5 0 Z" stroke="none"/>
    </g>
    <g id="Polygon_4" data-name="Polygon 4" transform="translate(25 32) rotate(180)" fill="#fff">
      <path d="M 3.190984964370728 3.5 L 0.8090149760246277 3.5 L 2 1.118029952049255 L 3.190984964370728 3.5 Z" stroke="none"/>
      <path d="M 2 2.236070156097412 L 1.618035078048706 3 L 2.381965160369873 3 L 2 2.236070156097412 M 2 0 L 4 4 L 0 4 L 2 0 Z" stroke="none"/>
    </g>
    <g id="Polygon_6" data-name="Polygon 6" transform="translate(21 34)" fill="#fff">
      <path d="M 3.190984964370728 3.5 L 0.8090149760246277 3.5 L 2 1.118029952049255 L 3.190984964370728 3.5 Z" stroke="none"/>
      <path d="M 2 2.236070156097412 L 1.618035078048706 3 L 2.381965160369873 3 L 2 2.236070156097412 M 2 0 L 4 4 L 0 4 L 2 0 Z" stroke="none"/>
    </g>
    <g id="Polygon_7" data-name="Polygon 7" transform="translate(28 21) rotate(180)" fill="#fff">
      <path d="M 3.190984964370728 3.5 L 0.8090149760246277 3.5 L 2 1.118029952049255 L 3.190984964370728 3.5 Z" stroke="none"/>
      <path d="M 2 2.236070156097412 L 1.618035078048706 3 L 2.381965160369873 3 L 2 2.236070156097412 M 2 0 L 4 4 L 0 4 L 2 0 Z" stroke="none"/>
    </g>
    <g id="Polygon_8" data-name="Polygon 8" transform="translate(22 21) rotate(180)" fill="#fff">
      <path d="M 3.190984964370728 3.5 L 0.8090149760246277 3.5 L 2 1.118029952049255 L 3.190984964370728 3.5 Z" stroke="none"/>
      <path d="M 2 2.236070156097412 L 1.618035078048706 3 L 2.381965160369873 3 L 2 2.236070156097412 M 2 0 L 4 4 L 0 4 L 2 0 Z" stroke="none"/>
    </g>
  </g>
</svg>
